HIERARCHY
ROOT Hips
{
	OFFSET 0.00000 0.00000 0.00000
	CHANNELS 6 Xposition Yposition Zposition Zrotation Yrotation Xrotation 
	JOINT LHipJoint
	{
		OFFSET 0 0 0
		CHANNELS 3 Zrotation Yrotation Xrotation
		JOINT LeftHip
		{
			OFFSET 1.53139 -1.83434 0.76626
			CHANNELS 3 Zrotation Yrotation Xrotation
			JOINT LeftKnee
			{
				OFFSET 2.56112 -7.03663 0.00000
				CHANNELS 3 Zrotation Yrotation Xrotation
				JOINT LeftAnkle
				{
					OFFSET 2.59983 -7.14299 0.00000
					CHANNELS 3 Zrotation Yrotation Xrotation
					JOINT LeftToe
					{
						OFFSET 0.13742 -0.37757 2.00054
						CHANNELS 3 Zrotation Yrotation Xrotation
						End Site
						{
							OFFSET 0.00000 -0.00000 1.02897
						}
					}
				}
			}
		}
	}
	JOINT RHipJoint
	{
		OFFSET 0 0 0
		CHANNELS 3 Zrotation Yrotation Xrotation
		JOINT RightHip
		{
			OFFSET -1.40122 -1.83435 0.76627
			CHANNELS 3 Zrotation Yrotation Xrotation
			JOINT RightKnee
			{
				OFFSET -2.54052 -6.98003 0.00000
				CHANNELS 3 Zrotation Yrotation Xrotation
				JOINT RightAnkle
				{
					OFFSET -2.63179 -7.23079 0.00000
					CHANNELS 3 Zrotation Yrotation Xrotation
					JOINT RightToe
					{
						OFFSET -0.24131 -0.66299 2.03908
						CHANNELS 3 Zrotation Yrotation Xrotation
						End Site
						{
							OFFSET -0.00000 -0.00000 1.07391
						}
					}
				}
			}
		}
	}
	JOINT lowerback
	{
		OFFSET 0 0 0
		CHANNELS 3 Zrotation Yrotation Xrotation
		JOINT Chest
		{
			OFFSET 0.01174 2.10302 -0.29778
			CHANNELS 3 Zrotation Yrotation Xrotation
			JOINT Chest2
			{
				OFFSET 0.00772 2.13227 -0.01247
				CHANNELS 3 Zrotation Yrotation Xrotation
				JOINT lowerneck
				{
					OFFSET 0 0 0
					CHANNELS 3 Zrotation Yrotation Xrotation
					JOINT Neck
					{
						OFFSET -0.09219 1.60848 0.31481
						CHANNELS 3 Zrotation Yrotation Xrotation
						JOINT Head
						{
							OFFSET 0.13974 1.65456 -0.31134
							CHANNELS 3 Zrotation Yrotation Xrotation
							End Site
							{
								OFFSET 0.04742 1.69515 -0.14578
							}
						}
					}
				}
				JOINT LeftCollar
				{
					OFFSET 0 0 0
					CHANNELS 3 Zrotation Yrotation Xrotation
					JOINT LeftShoulder
					{
						OFFSET 3.24909 1.02882 -0.23993
CHANNELS 3 Zrotation Xrotation Yrotation
						JOINT LeftElbow
						{
OFFSET 0 -5.329550 -0.000000
CHANNELS 3 Zrotation Xrotation Yrotation
							JOINT LeftWrist
							{
OFFSET 0 -3.692320 -0.000000
CHANNELS 3 Zrotation Xrotation Yrotation
								JOINT lhand
								{
									OFFSET 0 0 0
CHANNELS 3 Zrotation Xrotation Yrotation
									JOINT LFingers
									{
OFFSET 0 -0.536600 -0.000000
CHANNELS 3 Zrotation Xrotation Yrotation
										End Site
										{
OFFSET 0 -0.432620 -0.000000
										}
									}
								}
								JOINT LThumb
								{
OFFSET 0 0.000000 0.000000
CHANNELS 3 Zrotation Xrotation Yrotation
									End Site
									{
OFFSET 0 -0.439220 0.439220
									}
								}
							}
						}
					}
				}
				JOINT RightCollar
				{
					OFFSET 0 0 0
					CHANNELS 3 Zrotation Yrotation Xrotation
					JOINT RightShoulder
					{
						OFFSET -3.21387 0.93002 -0.34594
CHANNELS 3 Zrotation Xrotation Yrotation
						JOINT RightElbow
						{
OFFSET 0 -5.234310 0.000000
CHANNELS 3 Zrotation Xrotation Yrotation
							JOINT RightWrist
							{
OFFSET 0 -3.553010 -0.000000
CHANNELS 3 Zrotation Xrotation Yrotation
								JOINT rhand
								{
									OFFSET 0 0 0
CHANNELS 3 Zrotation Xrotation Yrotation
									JOINT RFingers
									{
OFFSET 0 -0.772520 -0.000000
CHANNELS 3 Zrotation Xrotation Yrotation
										End Site
										{
OFFSET 0 -0.622830 -0.000000
										}
									}
								}
								JOINT RThumb
								{
OFFSET 0 0.000000 0.000000
CHANNELS 3 Zrotation Xrotation Yrotation
									End Site
									{
OFFSET 0 -0.632340 0.632340
									}
								}
							}
						}
					}
				}
			}
		}
	}
}
MOTION
Frames: 6
Frame Time: 0.008333333333333333
16.286000 17.861900 -11.295400 2.431100 -82.346300 0.840200 0.000000 0.000000 0.000000 -22.397600 -4.953100 -6.899900 1.606500 7.993200 22.693400 0.667600 -8.263600 -14.809800 1.283200 -7.178400 -20.245100 0.000000 0.000000 0.000000 24.595900 4.088000 -9.752000 -2.805000 -10.372500 30.191500 -1.143400 0.721800 -19.991400 -0.044700 -1.364700 3.752900 -1.215600 -0.330900 5.681200 0.307300 -0.515600 -0.784500 1.046400 -0.225500 -3.983700 -7.816300 0.316400 -22.663500 8.184600 0.681700 25.595500 4.540200 0.562700 12.123400 0.000000 0.000000 0.000000 2.411200 -18.080200 -70.586100 152.774100 -38.393800 110.360900 28.917400 -14.126700 -12.843700 0.000000 0.000000 0.000000 -7.125000 0.000000 0.000000 1.498900 44.574100 0.015800 0.000000 0.000000 0.000000 -0.681900 5.426100 20.353700 -16.852100 -26.662400 -4.020700 -15.767800 2.270200 -7.797500 0.000000 0.000000 0.000000 7.125000 0.000000 -0.000000 8.035500 21.909500 4.500100
16.211337 17.843331 -11.324656 7.393363 -83.169226 -4.068391 0.000000 0.000000 0.000000 -22.889838 -3.849716 -6.876773 1.594177 7.963986 22.604864 0.701072 -8.505728 -15.186381 1.265047 -7.129356 -20.099072 0.000000 0.000000 0.000000 23.995210 4.121683 -9.708563 -2.886452 -10.508969 30.641233 -1.218186 1.504145 -20.423655 -0.030855 -1.134029 3.117817 -1.595592 -0.332451 5.617879 0.436519 -0.539211 -0.951516 1.395979 -0.224580 -4.116271 -8.859973 -1.302863 -21.759361 7.653795 -1.513811 29.305884 4.283312 -0.738018 13.689161 0.000000 0.000000 0.000000 4.960166 -9.470006 -60.564030 145.022503 -44.789154 105.200178 23.108457 -10.528105 -14.078521 0.000000 0.000000 0.000000 -7.125000 0.000000 0.000000 -4.059483 45.192386 0.019554 0.000000 0.000000 0.000000 -0.607251 4.464159 16.277696 -15.849430 -25.316088 -3.581364 -15.724471 4.484295 -8.726307 0.000000 0.000000 0.000000 7.125000 0.000000 0.000000 8.041175 20.957879 4.678550
16.169095 17.820453 -11.419973 8.691411 -83.294179 -5.687256 0.000000 0.000000 0.000000 -22.547558 -4.632616 -6.192828 1.642854 8.078690 22.953430 0.660964 -8.684477 -14.815859 0.618959 -5.029110 -13.992596 0.000000 0.000000 0.000000 24.355923 4.925796 -9.286900 -3.004714 -10.702647 31.283453 -1.264738 1.060939 -20.942397 -0.088120 -1.914376 5.269220 -1.782954 -0.471361 6.458291 0.563751 -0.747909 -0.970177 1.663117 -0.316527 -4.599449 -10.532552 -2.862279 -19.830326 7.380540 -3.756890 32.735879 4.168703 -2.141881 15.087511 0.000000 0.000000 0.000000 6.302354 -2.129409 -50.453751 127.614659 -53.910617 91.908688 21.262169 -4.562407 -14.879681 0.000000 0.000000 0.000000 -7.125000 0.000000 0.000000 -5.925838 45.808376 0.118693 0.000000 0.000000 0.000000 -0.653181 4.460445 15.717811 -16.562976 -26.278034 -3.891876 -15.706520 3.746756 -8.544654 0.000000 0.000000 0.000000 7.125000 0.000000 0.000000 8.058707 21.145228 4.654497
16.113969 17.769601 -11.506089 5.255477 -83.411552 -2.590585 0.000000 0.000000 0.000000 -21.764643 -5.978754 -6.886837 2.098670 9.068011 26.008804 0.689454 -8.429726 -15.058833 0.434144 -4.198820 -11.640985 0.000000 0.000000 0.000000 25.199093 4.751020 -8.626731 -2.956990 -10.625053 31.025698 -1.291129 1.176497 -21.132141 -0.046684 -1.393188 3.831311 -1.226464 -0.694503 6.935728 0.924865 -0.991706 -0.582878 1.753456 -0.452338 -4.458439 -11.992466 -3.742084 -18.811728 7.015772 -5.023262 35.842177 4.129537 -3.111866 16.588893 0.000000 0.000000 0.000000 5.394412 1.492635 -40.286117 93.074649 -59.934731 62.661558 24.034671 3.796821 -19.378785 0.000000 0.000000 0.000000 -7.125000 0.000000 0.000000 -4.310718 50.993705 0.637202 0.000000 0.000000 0.000000 -0.860795 4.432733 15.697564 -17.444355 -27.439828 -4.290141 -16.040268 3.083273 -8.903656 0.000000 0.000000 0.000000 7.125000 0.000000 0.000000 7.810489 20.759505 4.576893
16.055797 17.752124 -11.598509 -0.734096 -83.443183 2.753070 0.000000 0.000000 0.000000 -20.614792 -7.671146 -9.126235 3.207825 11.023347 32.359508 0.580468 -7.971873 -13.848385 0.658134 -5.188769 -14.447848 0.000000 0.000000 0.000000 26.309520 4.041770 -7.470609 -2.782319 -10.334011 30.065293 -1.339880 2.326661 -21.244150 -0.249457 -3.208891 8.861134 0.124308 -0.791932 7.983910 0.808316 -1.021540 0.204074 0.885726 -0.506810 -4.253968 -11.734432 -4.070605 -18.158452 6.918980 -5.820156 36.422932 3.900054 -3.470468 16.828887 0.000000 0.000000 0.000000 4.567954 2.606938 -30.230944 60.458560 -56.426019 34.723988 22.932707 19.386502 -27.053451 0.000000 0.000000 0.000000 -7.125000 0.000000 0.000000 -8.264553 58.798991 2.799137 0.000000 0.000000 0.000000 -0.430814 3.899290 16.540851 -17.669873 -27.732374 -4.394483 -16.200864 2.252728 -9.272588 0.000000 0.000000 0.000000 7.125000 0.000000 0.000000 7.688070 20.371390 4.571781
15.988304 17.787655 -11.722910 -2.850351 -83.440399 4.587067 0.000000 0.000000 0.000000 -18.978664 -8.714552 -15.639744 5.647928 14.075628 43.546821 0.021767 -9.672706 -7.142968 0.840622 -5.839383 -16.321684 0.000000 0.000000 0.000000 27.198893 3.664620 -5.762932 -2.367155 -9.592034 27.665604 -1.161130 1.665055 -19.885294 -0.130709 -2.329395 6.416998 0.371827 -0.491706 9.173904 0.903580 -0.603830 0.834732 0.806267 -0.310405 -4.271388 -12.673777 -4.380387 -17.740802 8.185491 -6.509613 36.219852 4.507144 -3.716330 16.826248 0.000000 0.000000 0.000000 3.435108 2.641939 -22.147225 38.888250 -47.386515 17.619864 23.542411 23.528278 -26.511390 0.000000 0.000000 0.000000 -7.125000 0.000000 0.000000 -7.333287 58.381430 2.407707 0.000000 0.000000 0.000000 -0.203790 3.888510 15.484260 -17.488979 -27.497858 -4.310707 -16.059230 2.798486 -8.805205 0.000000 0.000000 0.000000 7.125000 0.000000 0.000000 7.798814 20.859836 4.552287
